<svg xmlns="http://www.w3.org/2000/svg" width="195.349" height="39.287" viewBox="0 0 195.349 39.287"><g transform="translate(-19 -57.576)"><g transform="translate(19 57.576)"><path d="M49.047,76.847a10.777,10.777,0,1,0,3.308,21.034L56.3,99.373,55.76,96.05a10.774,10.774,0,0,0-6.713-19.2ZM46.372,88.36H42.237a1.427,1.427,0,0,1,0-2.854h4.135a1.427,1.427,0,0,1,0,2.854Zm9.639-.2h-.992v.992a1.23,1.23,0,1,1-2.461,0v-.992h-.992a1.23,1.23,0,0,1,0-2.461h.992v-.992a1.23,1.23,0,1,1,2.461,0V85.7h.992a1.23,1.23,0,0,1,0,2.461Z" transform="translate(-29.404 -67.98)" fill="#fff"/><path d="M38.643,57.576A19.643,19.643,0,1,0,58.286,77.219,19.643,19.643,0,0,0,38.643,57.576Zm0,34.744a15.1,15.1,0,1,1,15.1-15.1A15.1,15.1,0,0,1,38.643,92.32Z" transform="translate(-19 -57.576)" fill="#fff"/></g><g transform="translate(67.206 64.306)"><path d="M123.772,72.715h6.7a4.812,4.812,0,0,1,4.339,1.963,10.437,10.437,0,0,1,1.3,5.741,11.266,11.266,0,0,1-1.151,5.7q-1.151,1.919-4.133,1.919H128.76V98.071h-4.988Zm5.283,10.744a2.155,2.155,0,0,0,1.343-.34,1.614,1.614,0,0,0,.561-.974,9.4,9.4,0,0,0,.133-1.815,5.492,5.492,0,0,0-.354-2.3,1.428,1.428,0,0,0-1.417-.708h-.561v6.14Z" transform="translate(-123.772 -72.479)" fill="#fff"/><path d="M154.931,96.536a7.873,7.873,0,0,1-1.52-5.254V72.715h4.929v18.36a5.962,5.962,0,0,0,.236,1.889,1.086,1.086,0,0,0,2.007.015,5.965,5.965,0,0,0,.236-1.9V72.715h4.929V91.282a7.876,7.876,0,0,1-1.52,5.254,6.987,6.987,0,0,1-9.3,0Z" transform="translate(-139.774 -72.479)" fill="#fff"/><path d="M184.46,98.071V72.715h5.078V93.761h5.225v4.309Z" transform="translate(-156.537 -72.479)" fill="#fff"/><path d="M210.373,96.318q-1.536-1.712-1.535-5.52v-2.48h4.989v3.158q0,1.89,1.21,1.889a1.052,1.052,0,0,0,.945-.4,2.528,2.528,0,0,0,.265-1.343,6.081,6.081,0,0,0-.3-2.051,4.478,4.478,0,0,0-.753-1.358q-.458-.546-1.638-1.7l-2.184-2.184a7.539,7.539,0,0,1-2.539-5.49,7.282,7.282,0,0,1,1.491-4.944,5.487,5.487,0,0,1,4.354-1.7q3.423,0,4.929,1.815t1.506,5.682h-5.166l-.029-1.741a1.114,1.114,0,0,0-.28-.8,1.03,1.03,0,0,0-.783-.295,1.136,1.136,0,0,0-.885.325,1.264,1.264,0,0,0-.3.885,3.687,3.687,0,0,0,1.417,2.568l2.952,2.834a16.86,16.86,0,0,1,1.712,1.9,7.489,7.489,0,0,1,1.092,2.125,9.14,9.14,0,0,1,.413,2.908,9.783,9.783,0,0,1-1.372,5.682q-1.373,1.933-4.531,1.933Q211.909,98.03,210.373,96.318Z" transform="translate(-169.699 -72.202)" fill="#fff"/><path d="M239.5,98.071V72.715h10.155v4.9H244.67v4.93h4.781v4.782H244.67v5.815h5.313v4.93Z" transform="translate(-186.255 -72.479)" fill="#fff"/><path d="M280.946,98.071V72.715h7.734l2.125,15.467,2.125-15.467h7.792V98.071h-4.634V79.8l-2.923,18.271h-4.545l-3.1-18.271V98.071Z" transform="translate(-208.629 -72.479)" fill="#fff"/><path d="M327.33,98.071l2.45-25.356h8.589l2.421,25.356h-4.811l-.355-4.1h-3.069l-.3,4.1Zm5.608-8.147h2.3l-1.121-12.9h-.236Z" transform="translate(-233.672 -72.479)" fill="#fff"/><path d="M359.918,98.071V72.715h5.018V82.869L367.3,72.715H372.4l-2.833,11.6L373,98.071h-5.254l-2.775-12.279V98.071Z" transform="translate(-251.266 -72.479)" fill="#fff"/><path d="M390.2,98.071V72.715h10.155v4.9h-4.988v4.93h4.781v4.782h-4.781v5.815h5.313v4.93Z" transform="translate(-267.614 -72.479)" fill="#fff"/><path d="M416.629,72.715h7.793a4.4,4.4,0,0,1,2.878.841,4.18,4.18,0,0,1,1.372,2.361,17.521,17.521,0,0,1,.355,3.882,8.185,8.185,0,0,1-.561,3.365,3.15,3.15,0,0,1-1.948,1.682A2.349,2.349,0,0,1,428.185,86a5.058,5.058,0,0,1,.516,2.48l-.059,9.593h-4.959V88.152q0-1.062-.414-1.358a2.751,2.751,0,0,0-1.505-.295V98.071h-5.136Zm6.376,9.387q1.062,0,1.062-2.3a9.363,9.363,0,0,0-.089-1.505,1.12,1.12,0,0,0-.324-.694,1.057,1.057,0,0,0-.679-.191h-1.181V82.1Z" transform="translate(-281.884 -72.479)" fill="#fff"/></g></g></svg>