<?xml version="1.0" standalone="no"?>
<!DOCTYPE svg PUBLIC "-//W3C//DTD SVG 20010904//EN"
 "http://www.w3.org/TR/2001/REC-SVG-20010904/DTD/svg10.dtd">
<svg version="1.0" xmlns="http://www.w3.org/2000/svg"
 width="260.000000pt" height="260.000000pt" viewBox="0 0 260.000000 260.000000"
 preserveAspectRatio="xMidYMid meet">
<metadata>
Created by potrace 1.11, written by Peter Selinger 2001-2013
</metadata>
<g transform="translate(0.000000,260.000000) scale(0.100000,-0.100000)"
fill="#000000" stroke="none">
<path d="M1218 2545 c-2 -2 -28 -5 -58 -8 -411 -44 -789 -307 -979 -684 -40
-81 -85 -213 -107 -313 -18 -88 -25 -323 -12 -425 39 -298 232 -630 473 -812
54 -41 115 -83 120 -83 3 0 22 -10 43 -23 71 -44 235 -107 322 -124 132 -26
181 -30 310 -28 80 2 156 6 170 9 14 4 39 9 57 12 110 18 275 83 394 154 324
196 544 527 596 903 13 90 7 326 -10 407 -77 363 -288 661 -599 843 -40 24
-104 56 -143 71 -38 16 -79 32 -90 37 -20 8 -92 28 -128 35 -10 2 -26 5 -35 8
-43 12 -314 30 -324 21z m232 -300 c30 -4 91 -18 135 -32 423 -133 696 -516
680 -953 -15 -396 -251 -723 -630 -871 -197 -77 -469 -74 -680 8 -305 118
-528 383 -595 708 -18 88 -21 288 -6 355 4 14 8 37 11 53 3 15 19 64 35 108
73 200 195 354 374 474 117 77 258 133 381 150 27 3 50 7 52 8 5 5 193 -1 243
-8z"/>
<path d="M1121 1954 c-174 -51 -299 -143 -394 -291 -206 -319 -114 -743 206
-947 61 -39 160 -83 208 -92 129 -23 207 -24 309 -2 30 7 60 12 65 11 23 -4
52 -12 80 -24 17 -7 32 -13 35 -14 3 -1 12 -5 20 -8 30 -13 103 -37 112 -37 6
0 7 7 4 16 -3 9 -9 37 -12 63 -3 25 -9 62 -13 83 -8 35 -6 39 50 96 85 88 131
165 169 282 78 239 10 511 -172 690 -76 74 -139 114 -253 161 -105 43 -288 49
-414 13z m543 -423 c14 -14 20 -34 20 -66 1 -25 3 -45 6 -46 3 0 25 -2 49 -4
57 -5 85 -32 85 -80 0 -47 -21 -66 -85 -73 -53 -7 -54 -8 -55 -39 -2 -58 -4
-63 -24 -83 -27 -27 -77 -26 -107 2 -18 17 -23 32 -23 70 l0 48 -44 0 c-28 0
-52 7 -69 20 -67 53 -11 144 83 137 23 -2 25 2 30 49 7 68 36 97 89 88 14 -2
34 -12 45 -23z m-496 -112 c75 -26 71 -142 -6 -166 -22 -7 -201 -9 -308 -4
-32 2 -74 49 -74 83 0 39 15 64 48 82 33 18 291 22 340 5z"/>
</g>
</svg>
